<svg width="1144" height="911" viewBox="0 0 1144 911" fill="none" xmlns="http://www.w3.org/2000/svg">
<path d="M721.119 0.442534C720.057 0.725682 717.827 1.64591 716.164 2.42457L713.155 3.87571L682.292 34.7389C659.888 57.143 651.04 66.2037 650.013 67.8318C649.199 69.106 648.137 71.4065 647.607 72.9639C646.757 75.4414 646.651 76.397 646.651 80.2549C646.651 84.219 646.757 84.9977 647.607 87.5106C649.589 93.0674 649.093 92.5365 680.558 124.001C709.05 152.493 710.076 153.449 712.801 154.829C720.942 159.006 730.109 158.475 737.117 153.413C738.355 152.528 753.079 138.053 769.82 121.241L800.33 90.696L801.781 87.6522C805.178 80.5735 805.108 73.3886 801.639 66.4161C800.4 63.9385 798.808 62.275 770.599 34.031C750.708 14.1044 740.267 3.9111 738.993 3.13244C735.347 0.938044 732.409 0.123993 727.49 0.017812C724.41 -0.052975 722.464 0.088599 721.119 0.442534Z" fill="#393436"/>
<path d="M552.16 2.9554C551.77 3.02619 550.567 3.27394 549.505 3.4863C548.443 3.69867 546.214 4.51272 544.55 5.29137L541.542 6.70711L509.829 38.4197C478.824 69.4244 478.046 70.2385 476.842 72.8222C475.073 76.5739 474.436 79.37 474.436 83.3695C474.471 87.5105 475.073 90.0589 476.984 94.0583L478.435 97.0668L508.236 126.833L538.002 156.634L541.011 158.085C544.975 159.996 547.523 160.598 551.629 160.598C555.734 160.598 558.743 159.926 562.247 158.227C564.831 156.988 565.892 155.962 596.614 125.24C631.052 90.7667 629.495 92.501 631.3 86.6257C632.432 82.9094 632.432 77.6003 631.3 73.884C629.53 68.0441 630.875 69.5306 598.596 37.2163C566.636 5.18519 567.202 5.6807 561.751 3.98181C559.097 3.13237 553.823 2.56607 552.16 2.9554Z" fill="#393436"/>
<path d="M381.297 7.5352C380.023 7.78295 377.651 8.66779 375.988 9.48184L372.979 10.933L341.408 42.504L309.873 74.0396L308.457 77.0481C304.741 84.7993 305.271 93.4353 309.837 100.231C311.041 102 319.818 110.955 340.665 131.766L369.794 160.825L372.838 162.311C376.802 164.222 380.164 164.93 384.482 164.718C388.375 164.541 392.269 163.373 395.631 161.391C398.64 159.586 458.809 99.3814 460.507 96.4437C461.18 95.3465 462.1 93.2937 462.631 91.8426C463.481 89.542 463.587 88.7633 463.587 84.4807C463.587 79.1717 463.268 77.7913 461.003 73.3318C459.835 71.0312 457.464 68.589 429.821 40.9113L399.878 10.933L396.87 9.48184C391.915 7.07508 386.535 6.4026 381.297 7.5352Z" fill="#393436"/>
<path d="M340.835 632.607C331.244 634.306 322.395 638.093 314.786 643.756C311.105 646.517 304.734 652.958 302.115 656.639C295.319 666.125 291.567 676.743 290.718 688.6L290.47 692.068H340.835C388.616 692.068 391.165 692.104 390.917 692.67C390.386 694.05 388.581 700.917 388.015 703.748C387.448 706.544 387.413 714.048 387.307 808.761L387.201 910.8H388.616C391.059 910.8 396.757 910.092 400.261 909.314C408.047 907.65 416.931 903.615 423.337 898.802C427.726 895.475 433.602 889.493 436.645 885.211C441.282 878.628 445.034 869.708 446.733 861.179L447.547 857.179L447.653 774.606L447.724 692.068H469.668C493.381 692.068 496.248 691.891 503.079 690.122C513.768 687.361 522.121 682.477 530.367 674.23C537.375 667.187 541.729 660.391 544.808 651.472C546.719 646.021 548.241 637.775 548.241 632.926V631.899L446.414 631.935C348.657 631.97 344.41 631.97 340.835 632.607Z" fill="#393436"/>
<path d="M887.069 767.448V896.458H888.804C891.67 896.458 898.395 895.466 902.147 894.475C921.826 889.379 937.824 874.372 944.194 855.047C947.026 846.446 947.238 843.898 947.238 818.344V796.648H968.97H990.702L1020.01 839.899C1036.15 863.718 1050.23 884.388 1051.37 885.875C1059.65 897.059 1072.21 905.235 1086.16 908.421C1091.5 909.659 1095.86 910.013 1102.05 909.801C1108.21 909.553 1112.35 908.845 1118.15 907.04C1121.73 905.908 1130.79 901.625 1132.45 900.28L1133.41 899.466L1094.3 841.81C1072.78 810.097 1055.29 784.048 1055.44 783.906C1055.58 783.765 1057.38 782.384 1059.44 780.862C1091.47 756.865 1100.56 712.871 1080.67 678.115C1076.18 670.258 1068.96 661.869 1061.74 656.029C1049.24 645.978 1034.52 640.138 1018.2 638.793C1015.62 638.58 989.073 638.439 950.53 638.439H887.069V767.448ZM990.064 679.991C998.382 681.265 1005.71 684.946 1011.62 690.821C1022.31 701.439 1025.95 717.366 1020.96 731.347C1015.94 745.327 1003.62 755.167 988.826 756.972C986.879 757.219 978.278 757.361 966.457 757.361H947.238V718.428V679.495H966.988C982.278 679.495 987.445 679.601 990.064 679.991Z" fill="#393436"/>
<path d="M163.426 639.89C152.419 640.952 141.765 645.022 132.244 651.782C128.316 654.578 121.378 661.586 118.476 665.692C117.167 667.532 115.149 670.894 113.981 673.124C112.176 676.628 13.2866 901.483 13.0034 902.757C12.8618 903.394 17.1445 905.093 22.0995 906.403C37.0356 910.296 51.8655 908.704 65.9875 901.731C71.9336 898.829 76.4286 895.679 81.1359 891.148C85.5247 886.972 88.8517 882.831 91.6832 878.124C92.8866 876.071 96.5321 868.426 99.9653 860.604L106.088 846.729H171.779H237.505L243.628 860.179C250.812 875.965 251.804 878.017 254.246 881.769C263.023 895.254 276.933 904.527 293.462 907.854C296.895 908.562 298.488 908.668 304.894 908.633C311.194 908.633 312.893 908.491 316.043 907.819C319.971 907.005 328.006 904.456 328.961 903.748C329.457 903.394 323.121 889.272 277.358 788.507C248.653 725.33 224.409 672.346 223.489 670.718C219.631 663.851 213.189 656.56 206.818 651.782C203.314 649.127 194.785 644.739 190.006 643.075C181.512 640.173 172.203 639.04 163.426 639.89ZM195.811 754.883C209.402 784.755 220.48 809.425 220.48 809.672C220.48 809.991 210.428 810.097 171.425 810.097C124.882 810.097 122.369 810.062 122.511 809.46C122.688 808.858 169.655 701.793 170.292 700.59C170.469 700.236 170.752 700.094 170.894 700.236C171.071 700.413 182.255 725.011 195.811 754.883Z" fill="#393436"/>
<path d="M625.256 644.907C601.259 647.986 581.227 665.187 574.679 688.228C572.378 696.369 572.555 686.883 572.449 799.824L572.343 902.182L574.183 902.005C575.21 901.934 577.192 901.757 578.537 901.651C587.527 900.908 598.569 896.873 606.391 891.493C619.345 882.539 628.371 868.948 631.45 853.693C632.653 847.853 632.866 841.907 632.866 814.123V788.215H692.327H751.788V845.163V902.111L754.549 901.97C766.405 901.227 777.554 897.369 786.58 890.962C792.597 886.68 799.817 878.858 803.604 872.558C806.683 867.426 809.373 860.418 810.966 853.516L811.78 849.977L811.851 747.229L811.957 644.517H810.081C799.746 644.517 786.367 649.048 776.917 655.772C772.635 658.816 766.087 665.329 763.008 669.647C758.442 676.088 754.549 685.043 752.779 693.183C752.071 696.546 752.036 697.82 751.894 719.445L751.753 742.203H692.291H632.866V693.36V644.517L630.317 644.553C628.902 644.588 626.636 644.765 625.256 644.907Z" fill="#393436"/>
<path d="M914.5 464L1144 223.5C1058.4 142.7 972.667 184.5 940.5 215.5L712.5 454.5C802.9 528.9 884.833 491.833 914.5 464Z" fill="#4FBFAB"/>
<path d="M549.5 544L853.5 225C775.5 145 688 184 654 213.5C618.667 250.667 546.1 326.8 538.5 334C530.9 341.2 522.667 334.333 519.5 330C502.667 311.833 462.9 269.3 438.5 244.5C414.1 219.7 402.667 210.5 400 209C318.8 153.4 243.167 195.833 215.5 224L0 451C87.6 532.2 174.833 487.167 207.5 454.5C241.167 419 309.7 346.9 314.5 342.5C319.3 338.1 324.5 341 326.5 343C389.167 409 515.3 541.9 518.5 545.5C522.5 550 528.5 553.5 535.5 553C541.1 552.6 547.167 546.833 549.5 544Z" fill="#4FBFAB"/>
</svg>
